<?xml version="1.0" encoding="utf-8"?>
<!-- Generator: Adobe Illustrator 21.0.0, SVG Export Plug-In . SVG Version: 6.00 Build 0)  -->
<svg version="1.1" id="Layer_1" xmlns="http://www.w3.org/2000/svg" xmlns:xlink="http://www.w3.org/1999/xlink" x="0px" y="0px"
	 viewBox="0 0 3481.4 1376" style="enable-background:new 0 0 3481.4 1376;" xml:space="preserve">
<style type="text/css">
	.st0{fill:#FDAA30;}
</style>
<g>
	<path class="st0" d="M316,204.2l-158.9,87v135.7H58.5v142.7h98.6v185.6c0,189.1,60.3,251.7,244.8,251.7h23.2V858.4
		C327.6,858.4,316,844.5,316,754V569.6h132.3l69.6-142.7H316V204.2z"/>
	<path class="st0" d="M841.5,415.3c-66.1,0-121.8,29-160.1,75.4V160.1H523.6v846.8h158.9V690.2c0-97.4,49.9-139.2,110.2-139.2
		c70.8,0,106.7,45.2,106.7,124.1v331.8h161.2V653.1C1060.7,503.5,978.4,415.3,841.5,415.3z"/>
	<path class="st0" d="M3166,715.8c0-167-121.8-300.4-299.3-300.4c-167,0-301.6,134.6-301.6,301.6s125.3,301.6,306.2,301.6
		c128.8,0,220.4-63.8,270.3-154.3l-98.8-58.9c-25.5,55.7-106.6,74-170.4,74c-83.5,0-135.7-41.8-154.3-105.6H3166V715.8z
		 M2725.2,646.2c24.4-54.5,75.4-91.6,142.7-91.6s117.1,31.3,138,91.6H2725.2z"/>
	<path class="st0" d="M2452.6,426.9l-155.8,408.6L2141,426.9h-80.5h-84.3h-80.5l-144.2,378.2l-144.2-378.2h-107.2h-11.2h-52.6
		c-78.9,0-131.1,34.8-160.1,95.1v-95.1h-157.8v580h158.9V733.2c0-107.9,37.1-152,121.8-152H1500v-7.1l162,414.1
		c-51.9,97.7-154.7,164.5-272.8,164.5h-18.6V1315h18.6c202.4,0,374.9-128.5,441.5-308.1h2.6l184.8-472.3l184.8,472.3h28.2h130.7
		h28.2l226.9-580L2452.6,426.9L2452.6,426.9z"/>
</g>
</svg>
