<?xml version="1.0" encoding="utf-8"?>
<!-- Generator: Adobe Illustrator 21.0.2, SVG Export Plug-In . SVG Version: 6.00 Build 0)  -->
<svg version="1.1" id="Layer_1" xmlns="http://www.w3.org/2000/svg" xmlns:xlink="http://www.w3.org/1999/xlink" x="0px" y="0px"
	 viewBox="0 0 96 69" style="enable-background:new 0 0 96 69;" xml:space="preserve">
<style type="text/css">
	.st0{fill:#FFFFFF;stroke:#000000;}
	.st1{fill:#EAEBEC;}
	.st2{fill:none;stroke:#000000;}
	.st3{fill:#D1D2D4;stroke:#231F20;stroke-width:1.75;}
	.st4{fill:#F68A35;}
	.st5{fill:none;stroke:#000000;stroke-width:1.75;}
	.st6{fill:#E6F3FD;stroke:#231F20;stroke-width:1.75;}
	.st7{fill:#CC5E07;}
	.st8{fill:none;}
	.st9{fill:#FFFFFF;}
	.st10{font-family:'Roboto-Regular';}
	.st11{font-size:5px;}
	.st12{filter:url(#Adobe_OpacityMaskFilter);}
	.st13{mask:url(#c_1_);fill:#FFFFFF;}
</style>
<path class="st0" d="M95,55c0,2-1.8,2-2.7,2c-8.1,0.1-16.2,0-24.3,0h-1.8c0,3,0,5.9,0,8.8c0,1.2-0.1,2.3-1.6,2.3
	c-1.5,0-5.8,0.1-6.9,0c-1-0.1-1.5-0.7-1.5-1.7c0-2.6,0-5.2,0-7.8c0-0.5,0-1-0.1-1.6h-1.7c-8.1,0-25.4,0-33.5,0c-0.7,0-2,0-2.5-0.8
	c-0.4-0.5-0.3-1.8-0.3-2V22.4c0-0.3,0.1-0.7,0.1-0.9C20.1,12.2,28,6,37.5,6c12.6,0,25.2,0,37.7,0c6.3,0,11.1,2.2,15.4,6.7
	c2.5,2.6,4,6.5,4.3,10L95,55L95,55z"/>
<path class="st1" d="M86.9,9c0.7,0,6.5,7,6.7,8.7c0.2,1.6,1.1,4.2,1.3,7.7c0.1,2.4,0.1,11.1,0,26.1c0.4,2.8,0.1,4.5-0.9,5
	c-1.5,0.8-23.9,0.4-29,0.4c0-1.8,0.4-3.2,2.3-4.4s10.1-1,12.5-1c4.3,0,9.4,0.9,9.6-5.9c0.2-9.2,0.3-19.6,0.3-27.4
	C89.7,12.6,86.9,10.9,86.9,9L86.9,9z"/>
<path class="st2" d="M94.8,55c0,2-1.8,2-2.7,2c-8.1,0.1-16.2,0-24.3,0H66c0,3,0,5.9,0,8.8c0,1.2-0.1,2.3-1.6,2.3
	c-1.5,0-5.8,0.1-6.9,0c-1-0.1-1.5-0.7-1.5-1.7c0-2.6,0-5.2,0-7.8c0-0.5,0-1-0.1-1.6h-1.7c-8.1,0-25.4,0-33.5,0c-0.7,0-2,0-2.5-0.8
	c-0.4-0.5-0.3-1.8-0.3-2V22.4c0-0.3,0.1-0.7,0.1-0.9C19.9,12.2,27.8,6,37.3,6c12.6,0,25.2,0,37.7,0c6.3,0,11.1,2.2,15.4,6.7
	c2.5,2.6,4,6.5,4.3,10L94.8,55L94.8,55z"/>
<path class="st1" d="M53.9,53.5H22.1c0-0.4-0.1-0.8-0.1-1.3c0-9,0-18,0-27c0-8.2,5.2-14.4,13.3-16c8.8-1.7,18.1,5.1,18.5,14
	C54.2,33.3,53.9,43.3,53.9,53.5"/>
<path class="st3" d="M53.1,53.7c0-10.2,0.3-20.3-0.1-30.3c-0.3-8.9-9.7-15.7-18.5-14c-8.1,1.6-13.3,7.8-13.3,16c0,9,0,18,0,27
	c0,0.4,0.1,0.8,0.1,1.3H53.1z"/>
<g transform="translate(0 1)">
	<g>
		<path id="a" class="st4" d="M43.7,50.4H2.2c-1.2,0-2.2-1-2.2-2.2v-31C0,16,1,15,2.2,15h41.5c1.2,0,2.2,1,2.2,2.2v31
			C45.9,49.4,45,50.4,43.7,50.4z"/>
	</g>
	<path class="st5" d="M43.7,49.5c0.8,0,1.3-0.6,1.3-1.3v-31c0-0.7-0.6-1.3-1.3-1.3H2.2c-0.8,0-1.3,0.6-1.3,1.3v31
		c0,0.7,0.6,1.3,1.3,1.3L43.7,49.5L43.7,49.5z"/>
</g>
<path class="st6" d="M67.2,10.8v16.1c-0.1,2.3-3.2,2-3.2,0.3c0-0.8,0-16.2,0-23.5C64,1.5,64.5,1,66.6,1c3.7,0,7.4,0,11.1,0
	c1.9,0,2.4,0.5,2.4,2.4c0,1.6,0,3.3,0,4.9c0,1.8-0.5,2.3-2.3,2.3c-3.1,0-6.3,0-9.4,0C68,10.7,67.7,10.7,67.2,10.8L67.2,10.8z"/>
<path class="st7" d="M41,48.5V17.8c0-1,0.8-1.8,1.9-1.8s1.9,0.8,1.9,1.8v30.7c0,1-0.8,1.8-1.9,1.8C41.8,50.3,41,49.5,41,48.5z"/>
<path class="st7" d="M43.2,49.6H2.8c-1,0-1.8-0.6-1.8-1.4c0-0.8,0.8-1.4,1.8-1.4h40.4c1,0,1.8,0.6,1.8,1.4
	C45,49,44.2,49.6,43.2,49.6z"/>
<path class="st5" d="M43.7,50.5c0.8,0,1.3-0.6,1.3-1.3v-31c0-0.7-0.6-1.3-1.3-1.3H2.2c-0.8,0-1.3,0.6-1.3,1.3v31
	c0,0.7,0.6,1.3,1.3,1.3L43.7,50.5L43.7,50.5z"/>
<rect x="3.5" y="19.5" class="st8" width="9.3" height="10.2"/>
<text transform="matrix(1 0 0 1 3.5 23.25)" class="st9 st10 st11">$20</text>
<g transform="translate(17.328 25.477)">
	<defs>
		<filter id="Adobe_OpacityMaskFilter" filterUnits="userSpaceOnUse" x="-3.2" y="-2" width="15.6" height="20.4">
			<feColorMatrix  type="matrix" values="1 0 0 0 0  0 1 0 0 0  0 0 1 0 0  0 0 0 1 0"/>
		</filter>
	</defs>
	<mask maskUnits="userSpaceOnUse" x="-3.2" y="-2" width="15.6" height="20.4" id="c_1_">
		<g class="st12">
			<path id="b_1_" class="st9" d="M1.9,2.3v2.5h-2.1v2.7h2.1V11c0,3.5,1.3,4.7,5.1,4.7h0.5v-2.8c-2,0-2.3-0.3-2.3-1.9V7.5H8l1.4-2.7
				H5.3V0.7L1.9,2.3z"/>
		</g>
	</mask>
	<path class="st13" d="M-3.2,18.4h15.6V-2H-3.2V18.4z"/>
</g>
</svg>
