<svg xmlns="http://www.w3.org/2000/svg" xmlns:xlink="http://www.w3.org/1999/xlink" width="72" height="70" viewBox="0 0 72 70">
    <defs>
        <rect id="a" width="71.272" height="69.883" rx="4"/>
        <path id="b" d="M4 0h63.272a4 4 0 0 1 4 4v7.886H0V4a4 4 0 0 1 4-4z"/>
    </defs>
    <g fill="none" fill-rule="evenodd">
        <use fill="#FFF" xlink:href="#a"/>
        <rect width="69.522" height="68.133" x=".875" y=".875" stroke="#000" stroke-width="1.75" rx="4"/>
        <rect width="8" height="57.273" x="63.2" y="11.136" fill="#27AACF" fill-opacity=".4" rx="2"/>
        <use fill="#EAEBEC" xlink:href="#b"/>
        <path stroke="#000" stroke-width="1.75" d="M.875 11.011h69.522V4c0-1.726-1.399-3.125-3.125-3.125H4A3.125 3.125 0 0 0 .875 4v7.011z"/>
        <ellipse cx="48.8" cy="6.364" fill="#000" rx="1.6" ry="1.591"/>
        <ellipse cx="54.4" cy="6.364" fill="#000" rx="1.6" ry="1.591"/>
        <ellipse cx="60" cy="6.364" fill="#000" rx="1.6" ry="1.591"/>
        <path stroke="#000" stroke-width="1.75" d="M46.617 30.227c-1.757.796-3.522 1.58-5.27 2.392a1.335 1.335 0 0 0-.598.558c-2.04 4.098-4.065 8.202-6.082 12.31-.316.644-.806 1.036-1.61 1.032-.697-.004-1.16-.339-1.495-.87-1.745-2.763-3.498-5.522-5.248-8.283-.079-.124-.162-.245-.272-.411-.795.594-1.567 1.17-2.337 1.748-1.503 1.13-3.008 2.26-4.505 3.396"/>
        <path fill="#000" d="M46.4 29.512a.698.698 0 0 1 .57 1.268s-.525-.708-.57-1.268z"/>
        <g>
            <path stroke="#000" stroke-width="1.75" d="M50.253 51.868c-2.355.008-4.709.005-7.063.005-7.305-.001-14.61-.014-21.914.01-1.177.003-2.009-.637-2.004-1.817.032-8.698.017-17.396.019-26.094v-.108"/>
            <path fill="#000" d="M18.59 23.872c0-.955 1.395-.986 1.395 0 0 0-1.399.204-1.394 0zM50.25 51.167c.955 0 .965 1.4-.02 1.4 0 0-.184-1.404.02-1.4z"/>
        </g>
        <rect width="69.522" height="68.133" x=".875" y=".875" stroke="#000" stroke-width="1.75" rx="4"/>
    </g>
</svg>
