<?xml version="1.0" encoding="utf-8"?>
<!-- Generator: Adobe Illustrator 21.0.2, SVG Export Plug-In . SVG Version: 6.00 Build 0)  -->
<svg version="1.1" id="Layer_1" xmlns="http://www.w3.org/2000/svg" xmlns:xlink="http://www.w3.org/1999/xlink" x="0px" y="0px"
	 viewBox="0 0 500 500" style="enable-background:new 0 0 500 500;" xml:space="preserve">
<style type="text/css">
	.st0{stroke:#FFFFFF;stroke-width:2;stroke-miterlimit:10;}
</style>
<path class="st0" d="M339.2,142l-3.1-3.1c-1-1-2.4-1-3.3,0l-5.5,5.5l-5.5-5.5c-0.5-0.5-1-0.7-1.7-0.7c-0.7,0-1.2,0.2-1.7,0.7
	l-5.5,5.5l-5.5-5.5c-1-1-2.4-1-3.3,0l-5.5,5.5l-5.5-5.5c-1-1-2.4-1-3.3,0l-3.1,3.1V78.7h52.4L339.2,142z M339.2,73.9h-52.4
	c-2.6,0-4.8,2.1-4.8,4.8v69c0,1,0.5,1.9,1.4,2.1c1,0.5,1.9,0.2,2.6-0.5l5.5-5.5l5.5,5.5c1,1,2.4,1,3.3,0l5.5-5.5l5.5,5.5
	c1,1,2.4,1,3.3,0l5.5-5.5l5.5,5.5c1,1,2.4,1,3.3,0l5.5-5.5l5.5,5.5c0.5,0.5,1,0.7,1.7,0.7c0.2,0,0.7,0,1-0.2c1-0.5,1.4-1.2,1.4-2.1
	v-69C344,76,341.8,73.9,339.2,73.9L339.2,73.9z"/>
<path class="st0" d="M299.4,118.4c0.5,0.5,1.2,0.7,1.7,0.7c0.5,0,1.2-0.2,1.7-0.7l23.8-23.8c1-1,1-2.4,0-3.3c-1-1-2.4-1-3.3,0
	l-23.8,23.8C298.5,116,298.5,117.5,299.4,118.4L299.4,118.4z"/>
<path class="st0" d="M298.7,93.7c0-1,0.5-1.9,1.4-2.4c0.7-0.5,1.4-0.7,2.1-0.7h0.5c1,0,1.9,0.5,2.4,1.4c0.5,0.7,1,1.7,0.7,2.6
	c0,1-0.5,1.9-1.4,2.4c-1,0.5-1.7,0.7-2.6,0.7s-1.9-0.5-2.4-1.4C299,95.6,298.7,94.6,298.7,93.7L298.7,93.7z M301.3,102.5h1
	c1.9,0,3.6-0.7,5-1.7c1.7-1.4,2.9-3.3,3.1-5.5c0.2-2.1-0.2-4.3-1.7-6.2c-1.4-1.9-3.3-2.9-5.5-3.1c-2.1-0.2-4.3,0.2-6.2,1.7
	c-1.7,1.4-2.9,3.3-3.1,5.5c-0.2,2.1,0.2,4.3,1.7,6.2C297,101.3,299,102.2,301.3,102.5L301.3,102.5z"/>
<path class="st0" d="M326.6,113.4c0.5,0.7,0.7,1.7,0.7,2.6c-0.2,1-0.7,1.7-1.4,2.4c-0.7,0.5-1.7,0.7-2.6,0.7c-1-0.2-1.7-0.7-2.4-1.4
	c-0.5-0.7-0.7-1.7-0.7-2.6c0.2-1,0.7-1.7,1.4-2.4c0.7-0.5,1.4-0.7,2.1-0.7h0.5C325.1,112.2,326.1,112.7,326.6,113.4L326.6,113.4z
	 M318.7,108.9c-1.7,1.4-2.9,3.3-3.3,5.5c-0.2,2.1,0.2,4.3,1.7,6.2c1.4,1.7,3.3,2.9,5.5,3.3h1.2c1.9,0,3.6-0.5,5-1.7
	c1.7-1.4,2.9-3.3,3.3-5.5c0.2-2.1-0.2-4.3-1.7-6.2c-1.4-1.7-3.3-2.9-5.5-3.3C322.8,107,320.4,107.5,318.7,108.9z"/>
</svg>
