<svg xmlns="http://www.w3.org/2000/svg" xmlns:xlink="http://www.w3.org/1999/xlink" width="87" height="79" viewBox="0 0 87 79">
    <defs>
        <path id="a" d="M60 78.12H4c-1.657 0-3-2.137-3-4.775V4.896C1 2.26 2.343.121 4 .121h56c1.657 0 3 2.138 3 4.775v68.45c0 2.637-1.343 4.775-3 4.775z"/>
    </defs>
    <g fill="none" fill-rule="evenodd">
        <g transform="translate(-1)">
            <use fill="#FFF" xlink:href="#a"/>
            <path stroke="#000" stroke-width="1.75" d="M60 77.246c1.066 0 2.125-1.686 2.125-3.9V4.895c0-2.215-1.059-3.9-2.125-3.9H4c-1.066 0-2.125 1.685-2.125 3.9v68.45c0 2.214 1.059 3.9 2.125 3.9h56z"/>
        </g>
        <text fill="#000" font-family="Nunito-ExtraBold, Nunito" font-size="14" font-weight="600" transform="translate(-1)">
            <tspan x="13.262" y="24">Made </tspan> <tspan x="21.48" y="43">for</tspan> <tspan x="18.869" y="62">You</tspan>
        </text>
        <path fill="#DDC4B1" stroke="#020303" stroke-width="1.75" d="M81.604 28.364c-1.723 1.945-1.403 3.031 1.04 4.242 1.8.893 2.854 2.232 2.852 4.17-.01 11.11 0 22.22-.008 33.33-.002 2.75-2.323 7.233-5.426 7.24-7.456.017-14.911.01-22.367.005-3.66-.003-5.677-4.474-5.683-7.892-.016-8.262-.005-16.525-.005-24.787 0-2.474-.02-4.949.006-7.423.022-2.072.933-3.699 3.04-4.682 2.286-1.067 2.62-2.351.965-4.203h25.586z"/>
        <path fill="#B48969" d="M78.24 29.955c.71 0 2.706.81 3.687 1.873 1.12 1.211 3.696.942 3.878 2.577.454 4.088.71 16.53.766 37.328-1.842 3.182-3.283 5.025-4.323 5.527-1.56.753-21.024 0-26.251-.358 0-1.703-.33-3.028 1.714-4.236 2.044-1.21 10.594-.933 13.08-.933 4.558 0 9.92.865 10.055-5.647.182-8.779 0-22.824 0-30.289 0-2.835-2.605-4.048-2.605-5.842z"/>
        <path stroke="#020303" stroke-width="1.75" d="M81.604 28.364c-1.723 1.945-1.403 3.031 1.04 4.242 1.8.893 2.854 2.232 2.852 4.17-.01 11.11 0 22.22-.008 33.33-.002 2.75-2.323 7.233-5.426 7.24-7.456.017-14.911.01-22.367.005-3.66-.003-5.677-4.474-5.683-7.892-.016-8.262-.005-16.525-.005-24.787 0-2.474-.02-4.949.006-7.423.022-2.072.933-3.699 3.04-4.682 2.286-1.067 2.62-2.351.965-4.203h25.586z"/>
        <path fill="#EAEBEC" stroke="#020303" stroke-width="1.75" d="M80.447 22c3.44 1.7 2.252 4.6 2.44 7.277H54.464c.114-2.666-.96-5.52 2.366-7.277h23.616z"/>
        <path fill="#CBCCCD" d="M75.068 22.795c.719.499 1.287.843 1.84 1.486.97 1.314.568 3.099.385 4.093 1.41 0 2.909.021 4.713.021.114-1.824.086-2.925-.08-3.678-.23-.81-.729-1.143-.868-1.285-.254-.258-.8-.637-1.064-.637h-4.926z"/>
    </g>
</svg>
