<?xml version="1.0" encoding="utf-8"?>
<!-- Generator: Adobe Illustrator 17.0.0, SVG Export Plug-In . SVG Version: 6.00 Build 0)  -->
<!DOCTYPE svg PUBLIC "-//W3C//DTD SVG 1.1//EN" "http://www.w3.org/Graphics/SVG/1.1/DTD/svg11.dtd">
<svg version="1.1" id="Layer_1" xmlns="http://www.w3.org/2000/svg" xmlns:xlink="http://www.w3.org/1999/xlink" x="0px" y="0px"
	 width="168.833px" height="85px" viewBox="49 0 168.833 85" enable-background="new 49 0 168.833 85" xml:space="preserve">
<title>@2xGroup 4</title>
<desc>Created with Sketch.</desc>
<g id="Thryve-Web-Design">
	<g id="Assets-Page" transform="translate(-250.000000, -1288.000000)">
		<g id="Group-4" transform="translate(251.000000, 1288.000000)">
			<path id="Path-6" fill="#DDC4B1" d="M206.989,23.176c0.891,0,3.4,1.019,4.635,2.355c1.406,1.523,4.646,1.184,4.875,3.24
				c0.571,5.139,0.892,20.782,0.963,46.927c-2.316,4-4.127,6.316-5.434,6.948c-1.961,0.947-26.431,0-33.002-0.45
				c0-2.141-0.414-3.806,2.155-5.326s13.319-1.172,16.444-1.172c5.731,0,12.471,1.088,12.64-7.1c0.229-11.036,0-28.693,0-38.077
				C210.263,26.957,206.989,25.431,206.989,23.176z"/>
			<path id="Line_2_" fill="none" stroke="#000000" stroke-width="1.75" stroke-linecap="square" d="M252.571,83.051"/>
			<path id="Line_1_" fill="none" stroke="#000000" stroke-width="1.75" stroke-linecap="square" d="M0.5,83.051"/>
			<path id="Stroke-1" fill="none" stroke="#020302" stroke-width="1.75" d="M211.217,21.176c-2.167,2.446-1.765,3.811,1.306,5.334
				c2.263,1.122,3.588,2.806,3.586,5.242c-0.012,13.967,0,27.934-0.009,41.9c-0.004,3.458-2.921,9.094-6.822,9.103
				c-9.373,0.021-18.746,0.012-28.119,0.006c-4.602-0.003-7.137-5.623-7.144-9.92c-0.02-10.388-0.007-20.775-0.007-31.162
				c0-3.11-0.024-6.221,0.008-9.331c0.027-2.604,1.173-4.65,3.822-5.886c2.874-1.342,3.294-2.956,1.213-5.285H211.217z"/>
			<path id="Stroke-3" fill="#EAEBEC" stroke="#020302" stroke-width="1.75" d="M210.762,14.176
				c4.325,2.136,2.832,5.782,3.066,9.148h-35.729c0.143-3.351-1.208-6.94,2.974-9.148H210.762z"/>
			<path id="Path" fill="#CBCDCE" d="M204,15.176c0.904,0.684,1.617,1.156,2.312,2.038c1.219,1.805,0.715,4.253,0.484,5.618
				c1.773,0,3.657,0.03,5.925,0.03c0.143-2.503,0.108-4.015-0.101-5.048c-0.29-1.113-0.916-1.569-1.091-1.764
				c-0.319-0.355-1.005-0.874-1.338-0.874C209.081,15.176,205.895,15.176,204,15.176z"/>
			<path id="Stroke-7" fill="#DDC4B1" stroke="#020302" stroke-width="1.5" d="M202.199,63.617
				c-0.008,0.027-0.015,0.055-0.024,0.083c-0.053,0.207-0.138,0.414-0.159,0.621c-0.103,0.991,0.266,1.723,1.075,2.18
				c1.786,1.009,3.578,2.008,5.37,3.01c0.144,0.08,0.295,0.15,0.451,0.198c1.106,0.335,2.318-0.301,2.774-1.416
				c0.305-0.745,0.251-1.446-0.131-2.093c-0.192-0.323-0.467-0.551-0.786-0.729c-1.772-0.996-3.542-1.988-5.317-2.98
				c-0.134-0.075-0.275-0.146-0.421-0.195c-0.765-0.256-1.488-0.101-2.156,0.445c-0.158,0.129-0.288,0.297-0.431,0.448
				L202.199,63.617z"/>
			<path id="Stroke-9" fill="#DDC4B1" stroke="#020302" stroke-width="1.5" d="M191.918,52.711c-0.02,0.021-0.039,0.042-0.059,0.064
				c-0.145,0.157-0.315,0.302-0.431,0.478c-0.553,0.833-0.566,1.651-0.062,2.424c1.116,1.709,2.24,3.412,3.363,5.115
				c0.09,0.137,0.191,0.27,0.309,0.384c0.825,0.799,2.197,0.786,3.122,0.005c0.618-0.524,0.897-1.168,0.859-1.918
				c-0.019-0.373-0.157-0.702-0.357-1.005c-1.109-1.689-2.217-3.378-3.329-5.065c-0.085-0.127-0.177-0.254-0.284-0.363
				c-0.559-0.577-1.274-0.768-2.121-0.587c-0.199,0.043-0.394,0.133-0.592,0.202L191.918,52.711z"/>
			<path id="Stroke-11" fill="#DDC4B1" stroke="#020302" stroke-width="1.5" d="M180.084,63.126
				c0.011,0.026,0.024,0.052,0.035,0.078c0.088,0.195,0.156,0.407,0.272,0.581c0.553,0.832,1.309,1.168,2.227,1.018
				c2.03-0.332,4.058-0.676,6.086-1.017c0.163-0.027,0.327-0.066,0.479-0.128c1.07-0.431,1.604-1.68,1.244-2.829
				c-0.24-0.769-0.729-1.277-1.439-1.541c-0.355-0.13-0.716-0.135-1.076-0.075c-2.009,0.335-4.017,0.67-6.026,1.009
				c-0.152,0.024-0.304,0.059-0.45,0.112c-0.757,0.28-1.218,0.851-1.386,1.69c-0.04,0.199-0.034,0.409-0.048,0.616L180.084,63.126z"
				/>
			<path id="Stroke-13" fill="#DDC4B1" stroke="#020302" stroke-width="1.5" d="M188.276,50.699l-0.041-0.075
				c-0.108-0.186-0.195-0.391-0.327-0.556c-0.63-0.778-1.411-1.044-2.312-0.812c-1.991,0.515-3.979,1.039-5.966,1.563
				c-0.161,0.043-0.318,0.097-0.466,0.171c-1.026,0.525-1.441,1.818-0.976,2.931c0.31,0.742,0.844,1.206,1.577,1.404
				c0.364,0.098,0.724,0.071,1.077-0.023c1.971-0.514,3.938-1.03,5.907-1.549c0.149-0.038,0.298-0.085,0.439-0.151
				c0.727-0.347,1.134-0.957,1.224-1.81c0.022-0.2-0.005-0.41-0.008-0.617L188.276,50.699z"/>
			<path id="Stroke-15" fill="#DDC4B1" stroke="#020302" stroke-width="1.5" d="M200.468,49.064c0-0.027-0.002-0.057-0.004-0.085
				c-0.008-0.214,0.012-0.434-0.029-0.641c-0.195-0.976-0.765-1.57-1.673-1.774c-2.008-0.448-4.016-0.888-6.026-1.327
				c-0.16-0.036-0.327-0.062-0.492-0.062c-1.155,0-2.127,0.957-2.233,2.157c-0.071,0.8,0.187,1.455,0.745,1.964
				c0.278,0.253,0.609,0.393,0.968,0.471c1.989,0.439,3.975,0.878,5.965,1.314c0.151,0.033,0.305,0.059,0.46,0.064
				c0.809,0.024,1.453-0.334,1.931-1.047c0.112-0.17,0.186-0.368,0.279-0.553L200.468,49.064z"/>
			<path id="Stroke-17" fill="#DDC4B1" stroke="#020302" stroke-width="1.5" d="M210.046,49.502
				c-0.026-0.012-0.054-0.022-0.081-0.031c-0.2-0.078-0.398-0.183-0.606-0.227c-0.984-0.21-1.761,0.071-2.312,0.814
				c-1.214,1.641-2.419,3.288-3.626,4.935c-0.097,0.132-0.185,0.274-0.251,0.422c-0.459,1.049,0.045,2.311,1.116,2.883
				c0.717,0.382,1.425,0.407,2.12,0.105c0.347-0.153,0.607-0.398,0.822-0.692c1.198-1.63,2.395-3.257,3.588-4.887
				c0.091-0.123,0.177-0.254,0.243-0.391c0.343-0.723,0.266-1.45-0.206-2.168c-0.112-0.169-0.266-0.314-0.402-0.473L210.046,49.502z
				"/>
			<path id="Rectangle-11" fill="#DDC4B1" d="M153.61,83.76H53.471c-2.469,0-4.471-1.922-4.471-4.292s2.002-4.292,4.471-4.292
				h100.14c2.469,0,4.471,1.922,4.471,4.292S156.079,83.76,153.61,83.76z"/>
			<path id="Rectangle-11_1_" fill="#DDC4B1" d="M150,79.587V6.468c0-2.37,2.002-4.292,4.471-4.292c2.469,0,4.471,1.922,4.471,4.292
				v73.119c0,2.37-2.002,4.292-4.471,4.292C152.002,83.878,150,81.957,150,79.587z"/>
			<path id="Rectangle-11_2_" fill="none" stroke="#000000" stroke-width="1.75" d="M153.504,83.422c2.487,0,4.49-1.922,4.49-4.275
				V5.326c0-2.353-2.002-4.275-4.49-4.275H53.365c-2.487,0-4.49,1.922-4.49,4.275v73.82c0,2.353,2.002,4.275,4.49,4.275H153.504z"/>
			<ellipse id="Oval" fill="#FFFFFF" stroke="#000000" stroke-width="1.75" cx="103.67" cy="40.06" rx="19.67" ry="18.884"/>
			<g id="Group" transform="translate(95.000000, 28.175959)">
				<g id="Group-5" transform="translate(0.475493, 0.691546)">
					<g id="Clip-4">
					</g>
					<defs>
						<filter id="Adobe_OpacityMaskFilter" filterUnits="userSpaceOnUse" x="-3.713" y="-3.932" width="22.664" height="29.538">
							<feColorMatrix  type="matrix" values="1 0 0 0 0  0 1 0 0 0  0 0 1 0 0  0 0 0 1 0"/>
						</filter>
					</defs>
					<mask maskUnits="userSpaceOnUse" x="-3.713" y="-3.932" width="22.664" height="29.538" id="mask-2">
						<g filter="url(#Adobe_OpacityMaskFilter)">
							<path id="path-1" fill="#FFFFFF" d="M3.663,2.351v3.664H0.687v3.851h2.976v5.012c0,5.106,1.821,6.796,7.388,6.796h0.701
								v-4.01c-2.942,0-3.293-0.376-3.293-2.818v-4.98h3.994l2.1-3.851H8.459V0.001L3.663,2.351z"/>
						</g>
					</mask>
					<polygon id="Fill-3" mask="url(#mask-2)" fill="#F6A832" points="-3.713,25.606 18.952,25.606 18.952,-3.932 -3.713,-3.932 
											"/>
				</g>
			</g>
			<path id="Rectangle-11_3_" fill="#DDC4B1" d="M153.61,83.76H53.471c-2.469,0-4.471-1.922-4.471-4.292s2.002-4.292,4.471-4.292
				h100.14c2.469,0,4.471,1.922,4.471,4.292S156.079,83.76,153.61,83.76z"/>
			<path id="Rectangle-11_4_" fill="none" stroke="#000000" stroke-width="1.75" d="M153.504,83.422c2.487,0,4.49-1.922,4.49-4.275
				V5.326c0-2.353-2.002-4.275-4.49-4.275H53.365c-2.487,0-4.49,1.922-4.49,4.275v73.82c0,2.353,2.002,4.275,4.49,4.275H153.504z"/>
			<g id="Group_1_" transform="translate(95.000000, 28.175959)">
				<g id="Group-5_1_" transform="translate(0.475493, 0.691546)">
					<g id="Clip-4_1_">
					</g>
					<defs>
						<filter id="Adobe_OpacityMaskFilter_1_" filterUnits="userSpaceOnUse" x="-3.713" y="-3.932" width="22.664" height="29.538">
							<feColorMatrix  type="matrix" values="1 0 0 0 0  0 1 0 0 0  0 0 1 0 0  0 0 0 1 0"/>
						</filter>
					</defs>
					<mask maskUnits="userSpaceOnUse" x="-3.713" y="-3.932" width="22.664" height="29.538" id="mask-4">
						<g filter="url(#Adobe_OpacityMaskFilter_1_)">
							<path id="path-3" fill="#FFFFFF" d="M3.663,2.351v3.664H0.687v3.851h2.976v5.012c0,5.106,1.821,6.796,7.388,6.796h0.701
								v-4.01c-2.942,0-3.293-0.376-3.293-2.818v-4.98h3.994l2.1-3.851H8.459V0.001L3.663,2.351z"/>
						</g>
					</mask>
					<polygon id="Fill-3_1_" mask="url(#mask-4)" fill="#F6A832" points="-3.713,25.606 18.952,25.606 18.952,-3.932 -3.713,-3.932 
											"/>
				</g>
			</g>
		</g>
	</g>
</g>
</svg>
