<?xml version="1.0" encoding="utf-8"?>
<!-- Generator: Adobe Illustrator 17.0.0, SVG Export Plug-In . SVG Version: 6.00 Build 0)  -->
<!DOCTYPE svg PUBLIC "-//W3C//DTD SVG 1.1//EN" "http://www.w3.org/Graphics/SVG/1.1/DTD/svg11.dtd">
<svg version="1.1" id="Layer_1" xmlns="http://www.w3.org/2000/svg" xmlns:xlink="http://www.w3.org/1999/xlink" x="0px" y="0px"
	 width="61.907px" height="76.198px" viewBox="19.046 11.906 61.907 76.198" enable-background="new 19.046 11.906 61.907 76.198"
	 xml:space="preserve">
<g>
	<path d="M76.191,11.906H23.808c-2.617,0-4.762,2.141-4.762,4.762v69.047c0,0.953,0.477,1.906,1.43,2.145
		c0.953,0.473,1.906,0.234,2.617-0.477l5.477-5.477l5.477,5.477c0.953,0.953,2.383,0.953,3.332,0l5.477-5.477l5.477,5.477
		c0.953,0.953,2.383,0.953,3.332,0l5.477-5.477l5.477,5.477c0.953,0.953,2.383,0.953,3.332,0l5.477-5.477l5.477,5.477
		c0.477,0.477,0.953,0.715,1.668,0.715c0.238,0,0.715,0,0.953-0.238c0.953-0.477,1.43-1.191,1.43-2.145V16.668
		C80.953,14.047,78.808,11.906,76.191,11.906L76.191,11.906z M76.191,80l-3.094-3.094c-0.953-0.953-2.383-0.953-3.332,0l-5.48,5.477
		l-5.477-5.477c-0.477-0.477-0.953-0.715-1.664-0.715c-0.715,0-1.191,0.238-1.668,0.715l-5.477,5.477l-5.477-5.477
		c-0.953-0.953-2.383-0.953-3.332,0l-5.477,5.477l-5.477-5.477c-0.953-0.953-2.383-0.953-3.332,0L23.808,80V16.668h52.383L76.191,80
		z"/>
	<path d="M36.43,56.43c0.477,0.477,1.191,0.715,1.668,0.715c0.477,0,1.191-0.238,1.668-0.715l23.809-23.809
		c0.953-0.953,0.953-2.383,0-3.332c-0.953-0.953-2.383-0.953-3.332,0L36.434,53.098C35.477,54.047,35.477,55.477,36.43,56.43
		L36.43,56.43z"/>
	<path d="M38.332,40.477h0.953c1.906,0,3.57-0.715,5-1.668c1.668-1.43,2.855-3.332,3.094-5.477c0.238-2.145-0.238-4.285-1.668-6.191
		c-1.43-1.906-3.332-2.855-5.477-3.094s-4.285,0.238-6.191,1.668c-1.668,1.43-2.855,3.332-3.094,5.477
		c-0.238,2.144,0.238,4.285,1.668,6.191C34.047,39.286,35.953,40.239,38.332,40.477L38.332,40.477z M35.715,31.668
		c0-0.953,0.477-1.906,1.43-2.383c0.715-0.477,1.43-0.715,2.145-0.715h0.477c0.953,0,1.906,0.477,2.383,1.43
		c0.477,0.715,0.953,1.668,0.715,2.617c0,0.953-0.477,1.906-1.43,2.383c-0.957,0.477-1.672,0.715-2.625,0.715
		s-1.906-0.477-2.383-1.43C35.953,33.571,35.715,32.618,35.715,31.668L35.715,31.668z"/>
	<path d="M55.715,46.906c-1.668,1.43-2.855,3.332-3.332,5.477c-0.238,2.145,0.238,4.285,1.668,6.191
		c1.43,1.668,3.332,2.855,5.477,3.332h1.191c1.906,0,3.57-0.477,5-1.668c1.668-1.43,2.855-3.332,3.332-5.477
		c0.238-2.145-0.238-4.285-1.668-6.191c-1.43-1.668-3.332-2.855-5.477-3.332C59.762,45,57.383,45.476,55.715,46.906z M63.57,51.429
		c0.477,0.715,0.715,1.668,0.715,2.617c-0.238,0.953-0.715,1.668-1.43,2.383c-0.715,0.477-1.668,0.715-2.617,0.715
		c-0.953-0.238-1.668-0.715-2.383-1.43c-0.477-0.715-0.715-1.668-0.715-2.617c0.238-0.953,0.715-1.668,1.43-2.383
		C59.285,50.238,60,50,60.715,50h0.477C62.145,50.238,63.094,50.715,63.57,51.429L63.57,51.429z"/>
</g>
</svg>
