<?xml version="1.0" encoding="utf-8"?>
<!-- Generator: Adobe Illustrator 17.0.0, SVG Export Plug-In . SVG Version: 6.00 Build 0)  -->
<!DOCTYPE svg PUBLIC "-//W3C//DTD SVG 1.1//EN" "http://www.w3.org/Graphics/SVG/1.1/DTD/svg11.dtd">
<svg version="1.1" id="Layer_1" xmlns="http://www.w3.org/2000/svg" xmlns:xlink="http://www.w3.org/1999/xlink" x="0px" y="0px"
	 width="43.1px" height="43.1px" viewBox="0 0 43.1 43.1" enable-background="new 0 0 43.1 43.1" xml:space="preserve">
<path fill="none" stroke="#FFFFFF" stroke-width="2" stroke-miterlimit="10" d="M21.55,33.05c-6.347,0-11.5-5.153-11.5-11.5
	s5.153-11.5,11.5-11.5s11.5,5.153,11.5,11.5S27.897,33.05,21.55,33.05z"/>
<g>
	<defs>
		<path id="SVGID_1_" d="M18.763,26.653c-0.804-1.069-1.608-2.139-2.409-3.212c-0.274-0.366-0.382-0.801-0.242-1.297
			c0.127-0.451,0.386-0.713,0.748-0.767c0.27-0.04,0.509,0.087,0.699,0.339c0.584,0.769,1.164,1.542,1.74,2.321
			c0.102,0.137,0.155,0.143,0.261,0c0.992-1.333,1.989-2.657,2.986-3.984c0.659-0.879,1.316-1.759,1.978-2.63
			c0.25-0.33,0.553-0.459,0.897-0.314c0.348,0.146,0.556,0.47,0.617,0.949c0.053,0.416-0.065,0.763-0.282,1.053
			c-1.165,1.554-2.331,3.107-3.497,4.661c-0.721,0.96-1.441,1.92-2.161,2.882c-0.185,0.246-0.402,0.393-0.632,0.397
			C19.165,27.044,18.946,26.897,18.763,26.653z"/>
	</defs>
	<clipPath id="SVGID_2_">
		<use xlink:href="#SVGID_1_"  overflow="visible"/>
	</clipPath>
	
		<rect x="11.05" y="9.907" clip-path="url(#SVGID_2_)" fill-rule="evenodd" clip-rule="evenodd" fill="#FFFFFF" width="20" height="24.286"/>
</g>
</svg>
